<svg xmlns="http://www.w3.org/2000/svg" version="1.1" xmlns:xlink="http://www.w3.org/1999/xlink" xmlns:svgjs="http://svgjs.dev/svgjs" width="1000" height="623" viewBox="0 0 1000 623"><g transform="matrix(1,0,0,1,-0.6060606060606233,0.2522267206477409)"><svg viewBox="0 0 396 247" data-background-color="#ffffff" preserveAspectRatio="xMidYMid meet" height="623" width="1000" xmlns="http://www.w3.org/2000/svg" xmlns:xlink="http://www.w3.org/1999/xlink"><g id="tight-bounds" transform="matrix(1,0,0,1,0.2400000000000091,-0.09999999999999432)"><svg viewBox="0 0 395.52 247.2" height="247.2" width="395.52"><g><svg></svg></g><g><svg viewBox="0 0 395.52 247.2" height="247.2" width="395.52"><g transform="matrix(1,0,0,1,122.53663493258652,47.215199999999996)"><svg viewBox="0 0 150.44673013482694 152.7696" height="152.7696" width="150.44673013482694"><g><svg viewBox="0 0 150.44673013482694 152.7696" height="152.7696" width="150.44673013482694"><g><svg viewBox="0 0 233.01443056667236 236.61213055276522" height="152.7696" width="150.44673013482694"><g><svg viewBox="0 0 233.01443056667236 236.61213055276522" height="236.61213055276522" width="233.01443056667236"><g id="textblocktransform"><svg viewBox="0 0 233.01443056667236 236.61213055276522" height="236.61213055276522" width="233.01443056667236" id="textblock"><g><svg viewBox="0 0 233.01443056667236 151.825483872" height="151.825483872" width="233.01443056667236"><g transform="matrix(1,0,0,1,0,0)"><svg width="233.01443056667236" viewBox="2.55 -35.25 54.1 35.25" height="151.825483872" data-palette-color="#2257bf"><path d="M22.9-11.05L28.2-11.05 28.2-7.65 22.9-7.65 22.9 0 18.85 0 18.85-7.65 2.55-7.65 2.55-10.75 19.55-35.25 22.9-35.25 22.9-11.05ZM18.85-28.4L6.8-11.05 18.85-11.05 18.85-28.4ZM33.35-31.8L33.35-35.25 56.65-35.25 56.65-32.2 40.15 0 35.7 0 52.15-31.8 33.35-31.8Z" opacity="1" transform="matrix(1,0,0,1,0,0)" fill="#2257bf" class="wordmark-text-0" data-fill-palette-color="primary" id="text-0"></path></svg></g></svg></g><g transform="matrix(1,0,0,1,0,187.66783680256628)"><svg viewBox="0 0 233.01443056667236 48.94429375019894" height="48.94429375019894" width="233.01443056667236"><g transform="matrix(1,0,0,1,0,0)"><svg width="233.01443056667236" viewBox="1.59 -34.35 166.65 35.010000000000005" height="48.94429375019894" data-palette-color="#2257bf"><path d="M13.55-18.95L13.55-16.7Q13.55-16.16 13.15-16.16 12.74-16.16 12.52-16.75L12.52-16.75Q11.94-18.36 10.78-19.6 9.62-20.85 7.91-20.85L7.91-20.85Q5.66-20.85 4.88-18.6L4.88-18.6Q4.64-17.85 4.64-17.04 4.64-16.24 5.66-15.25 6.69-14.26 9.03-12.89 11.38-11.52 12.45-10.57L12.45-10.57Q14.89-8.4 14.89-5.54 14.89-2.69 12.79-1.01 10.69 0.66 7.91 0.66L7.91 0.66Q6.42 0.66 5.21 0.26 4-0.15 3.82-0.15 3.64-0.15 3.23 0.26 2.83 0.66 2.59 0.66L2.59 0.66 2.17 0.66Q2.03 0.66 1.81-1.98 1.59-4.61 1.59-5.1 1.59-5.59 1.67-5.64 1.76-5.69 1.95-5.69 2.15-5.69 2.28-5.57 2.42-5.44 2.51-5.26 2.61-5.08 2.67-4.88 2.73-4.69 2.98-4.15L2.98-4.15Q4.64-0.61 8.11-0.61L8.11-0.61Q9.64-0.61 10.57-1.75 11.5-2.88 11.5-4.27 11.5-5.66 10.77-6.62 10.03-7.57 8.95-8.35 7.86-9.13 6.59-9.86L6.59-9.86Q1.66-12.74 1.66-16.24L1.66-16.24Q1.66-18.85 3.91-20.74 6.15-22.63 8.52-22.63 10.89-22.63 12.02-22.12 13.16-21.61 13.35-21.25 13.55-20.9 13.55-18.95L13.55-18.95ZM31.71-18.77L24.36-18.77Q24.22-18.77 24.22-18.55L24.22-18.55 24.22-5.08Q24.22-3.61 24.86-2.78 25.51-1.95 26.51-1.95 27.51-1.95 28.26-2.28 29-2.61 29.55-3 30.1-3.39 30.54-3.72 30.98-4.05 31.32-4.05 31.66-4.05 31.66-3.88L31.66-3.88Q31.66-3.3 31.54-3.13L31.54-3.13Q28.61 0.66 25.89 0.66 23.17 0.66 21.79-1.06 20.41-2.78 20.41-5.18L20.41-5.18 20.41-18.77 18.58-18.77Q17.89-18.77 17.86-19.21 17.82-19.65 17.99-19.78L17.99-19.78Q19.28-20.61 21.56-22.75L21.56-22.75Q21.8-23.02 22.21-23.56 22.63-24.1 23.42-25.02 24.22-25.95 24.63-25.95 25.05-25.95 25.05-25.61L25.05-25.61Q25.05-25.56 24.22-22.41L24.22-22.41Q24.22-21.97 24.61-21.95L24.61-21.95 30.83-21.95Q31.91-21.95 31.91-18.92L31.91-18.92Q31.91-18.77 31.71-18.77L31.71-18.77ZM49.31-4.03Q49.31-3.39 49.91-3.02 50.51-2.64 51.29-2.64 52.07-2.64 52.6-3.04 53.12-3.44 53.32-3.44 53.51-3.44 53.51-2.92 53.51-2.39 53.02-2.03L53.02-2.03Q49.36 0.66 48.07 0.66L48.07 0.66Q46.5 0.66 45.53-2.59L45.53-2.59Q45.45-2.83 45.41-2.81L45.41-2.81Q42.38-0.54 41.6-0.07L41.6-0.07Q39.59 1.07 37.58 0.29 35.57-0.49 34.66-2.29L34.66-2.29Q34.22-3.22 34.22-4.27L34.22-4.27Q34.22-6.35 35.76-7.57 37.3-8.79 41.62-9.91L41.62-9.91Q43.09-10.3 44.23-10.91 45.38-11.52 45.44-11.69 45.5-11.87 45.5-12.01L45.5-12.01 45.5-16.7Q45.5-19.46 43.35-20.58L43.35-20.58Q42.65-20.95 41.66-20.95 40.67-20.95 39.66-20.17 38.64-19.38 38.64-17.94L38.64-17.94 38.76-16.99Q38.62-16.7 37.01-16.02 35.4-15.33 35.15-15.28L35.15-15.28Q34.76-15.28 34.76-16.22 34.76-17.16 35.32-18.31 35.88-19.46 36.91-20.41L36.91-20.41Q39.3-22.63 42.38-22.63 45.45-22.63 47.38-20.94 49.31-19.24 49.31-16.89L49.31-16.89 49.31-4.03ZM38.06-4.74Q38.06-3.56 38.96-2.7 39.86-1.83 41.02-1.83 42.18-1.83 43.84-2.82 45.5-3.81 45.5-4.86L45.5-4.86 45.5-9.81Q45.5-10.08 45.38-10.08 45.26-10.08 45.21-10.06L45.21-10.06 39.55-7.42Q38.67-6.79 38.36-6.35 38.06-5.91 38.06-4.74ZM69.11-18.77L61.76-18.77Q61.61-18.77 61.61-18.55L61.61-18.55 61.61-5.08Q61.61-3.61 62.26-2.78 62.91-1.95 63.91-1.95 64.91-1.95 65.65-2.28 66.4-2.61 66.95-3 67.5-3.39 67.94-3.72 68.38-4.05 68.72-4.05 69.06-4.05 69.06-3.88L69.06-3.88Q69.06-3.3 68.94-3.13L68.94-3.13Q66.01 0.66 63.29 0.66 60.56 0.66 59.18-1.06 57.81-2.78 57.81-5.18L57.81-5.18 57.81-18.77 55.97-18.77Q55.29-18.77 55.25-19.21 55.22-19.65 55.39-19.78L55.39-19.78Q56.68-20.61 58.95-22.75L58.95-22.75Q59.2-23.02 59.61-23.56 60.03-24.1 60.82-25.02 61.61-25.95 62.03-25.95 62.44-25.95 62.44-25.61L62.44-25.61Q62.44-25.56 61.61-22.41L61.61-22.41Q61.61-21.97 62-21.95L62-21.95 68.23-21.95Q69.3-21.95 69.3-18.92L69.3-18.92Q69.3-18.77 69.11-18.77L69.11-18.77ZM82.51 0L71.62 0Q71.38-0.05 71.38-0.34L71.38-0.34Q71.38-0.78 72.52-0.93L72.52-0.93Q75.16-1.32 75.16-3.71L75.16-3.71 75.16-16.63Q75.16-17.65 74.04-18.04L74.04-18.04Q73.55-18.21 72.99-18.32 72.43-18.43 72.1-18.53 71.77-18.63 71.68-18.71 71.6-18.8 71.6-19.08 71.6-19.36 71.96-19.56L71.96-19.56 78.19-22.49Q78.48-22.63 78.55-22.63L78.55-22.63Q78.97-22.63 78.97-22.05L78.97-22.05 78.97-3.71Q78.97-1.32 81.61-0.93L81.61-0.93Q82.75-0.78 82.75-0.42 82.75-0.05 82.51 0L82.51 0ZM76.71-29.49Q75.7-29.49 74.93-30.13 74.16-30.76 74.16-31.9 74.16-33.03 74.89-33.69 75.62-34.35 76.64-34.35 77.65-34.35 78.35-33.57 79.04-32.79 79.04-31.88 79.04-30.98 78.38-30.24 77.72-29.49 76.71-29.49ZM97.52-18.95L97.52-16.7Q97.52-16.16 97.12-16.16 96.72-16.16 96.5-16.75L96.5-16.75Q95.91-18.36 94.75-19.6 93.59-20.85 91.88-20.85L91.88-20.85Q89.64-20.85 88.85-18.6L88.85-18.6Q88.61-17.85 88.61-17.04 88.61-16.24 89.64-15.25 90.66-14.26 93.01-12.89 95.35-11.52 96.42-10.57L96.42-10.57Q98.86-8.4 98.86-5.54 98.86-2.69 96.76-1.01 94.67 0.66 91.88 0.66L91.88 0.66Q90.39 0.66 89.18 0.26 87.98-0.15 87.79-0.15 87.61-0.15 87.21 0.26 86.8 0.66 86.56 0.66L86.56 0.66 86.14 0.66Q86 0.66 85.78-1.98 85.56-4.61 85.56-5.1 85.56-5.59 85.64-5.64 85.73-5.69 85.93-5.69 86.12-5.69 86.25-5.57 86.39-5.44 86.49-5.26 86.58-5.08 86.65-4.88 86.71-4.69 86.95-4.15L86.95-4.15Q88.61-0.61 92.08-0.61L92.08-0.61Q93.62-0.61 94.54-1.75 95.47-2.88 95.47-4.27 95.47-5.66 94.74-6.62 94.01-7.57 92.92-8.35 91.83-9.13 90.56-9.86L90.56-9.86Q85.63-12.74 85.63-16.24L85.63-16.24Q85.63-18.85 87.88-20.74 90.12-22.63 92.49-22.63 94.86-22.63 96-22.12 97.13-21.61 97.33-21.25 97.52-20.9 97.52-18.95L97.52-18.95ZM115.68-18.77L108.33-18.77Q108.19-18.77 108.19-18.55L108.19-18.55 108.19-5.08Q108.19-3.61 108.84-2.78 109.48-1.95 110.48-1.95 111.48-1.95 112.23-2.28 112.97-2.61 113.52-3 114.07-3.39 114.51-3.72 114.95-4.05 115.29-4.05 115.63-4.05 115.63-3.88L115.63-3.88Q115.63-3.3 115.51-3.13L115.51-3.13Q112.58 0.66 109.86 0.66 107.14 0.66 105.76-1.06 104.38-2.78 104.38-5.18L104.38-5.18 104.38-18.77 102.55-18.77Q101.86-18.77 101.83-19.21 101.79-19.65 101.96-19.78L101.96-19.78Q103.26-20.61 105.53-22.75L105.53-22.75Q105.77-23.02 106.19-23.56 106.6-24.1 107.39-25.02 108.19-25.95 108.6-25.95 109.02-25.95 109.02-25.61L109.02-25.61Q109.02-25.56 108.19-22.41L108.19-22.41Q108.19-21.97 108.58-21.95L108.58-21.95 114.8-21.95Q115.88-21.95 115.88-18.92L115.88-18.92Q115.88-18.77 115.68-18.77L115.68-18.77ZM129.08 0L118.2 0Q117.95-0.05 117.95-0.34L117.95-0.34Q117.95-0.78 119.1-0.93L119.1-0.93Q121.74-1.32 121.74-3.71L121.74-3.71 121.74-16.63Q121.74-17.65 120.61-18.04L120.61-18.04Q120.12-18.21 119.56-18.32 119-18.43 118.67-18.53 118.34-18.63 118.26-18.71 118.17-18.8 118.17-19.08 118.17-19.36 118.54-19.56L118.54-19.56 124.76-22.49Q125.06-22.63 125.13-22.63L125.13-22.63Q125.54-22.63 125.54-22.05L125.54-22.05 125.54-3.71Q125.54-1.32 128.18-0.93L128.18-0.93Q129.33-0.78 129.33-0.42 129.33-0.05 129.08 0L129.08 0ZM123.29-29.49Q122.27-29.49 121.5-30.13 120.73-30.76 120.73-31.9 120.73-33.03 121.47-33.69 122.2-34.35 123.21-34.35 124.23-34.35 124.92-33.57 125.62-32.79 125.62-31.88 125.62-30.98 124.96-30.24 124.3-29.49 123.29-29.49ZM151.42-19.7L151.42-19.7Q151.42-17.99 149.44-17.99L149.44-17.99Q148.44-17.99 147.75-18.57 147.05-19.14 146.67-19.54 146.29-19.95 145.88-20.29L145.88-20.29Q144.12-21.73 141.59-20.61 139.07-19.48 137.7-15.82L137.7-15.82Q136.94-13.79 136.94-11.79L136.94-11.79Q136.94-7.5 138.9-4.77 140.85-2.05 144.88-2.05L144.88-2.05Q147.88-2.05 150.27-4.74L150.27-4.74Q151.01-5.54 151.15-5.54 151.3-5.54 151.47-5.4 151.64-5.25 151.64-4.97 151.64-4.69 151.49-4.54L151.49-4.54Q147.76 0.66 142.09 0.66L142.09 0.66Q137.99 0.66 135.37-2.39 132.74-5.44 132.74-9.38L132.74-9.38Q132.77-16.65 136.26-19.85L136.26-19.85Q139.34-22.66 145.02-22.66L145.02-22.66Q148.54-22.66 149.69-21.95 150.83-21.24 151.3-20.17L151.3-20.17Q151.42-19.92 151.42-19.7ZM166.9-18.95L166.9-16.7Q166.9-16.16 166.49-16.16 166.09-16.16 165.87-16.75L165.87-16.75Q165.29-18.36 164.13-19.6 162.97-20.85 161.26-20.85L161.26-20.85Q159.01-20.85 158.23-18.6L158.23-18.6Q157.99-17.85 157.99-17.04 157.99-16.24 159.01-15.25 160.04-14.26 162.38-12.89 164.72-11.52 165.8-10.57L165.8-10.57Q168.24-8.4 168.24-5.54 168.24-2.69 166.14-1.01 164.04 0.66 161.26 0.66L161.26 0.66Q159.77 0.66 158.56 0.26 157.35-0.15 157.17-0.15 156.98-0.15 156.58 0.26 156.18 0.66 155.93 0.66L155.93 0.66 155.52 0.66Q155.37 0.66 155.15-1.98 154.93-4.61 154.93-5.1 154.93-5.59 155.02-5.64 155.1-5.69 155.3-5.69 155.5-5.69 155.63-5.57 155.76-5.44 155.86-5.26 155.96-5.08 156.02-4.88 156.08-4.69 156.33-4.15L156.33-4.15Q157.99-0.61 161.45-0.61L161.45-0.61Q162.99-0.61 163.92-1.75 164.85-2.88 164.85-4.27 164.85-5.66 164.11-6.62 163.38-7.57 162.29-8.35 161.21-9.13 159.94-9.86L159.94-9.86Q155.01-12.74 155.01-16.24L155.01-16.24Q155.01-18.85 157.25-20.74 159.5-22.63 161.87-22.63 164.24-22.63 165.37-22.12 166.51-21.61 166.7-21.25 166.9-20.9 166.9-18.95L166.9-18.95Z" opacity="1" transform="matrix(1,0,0,1,0,0)" fill="#2257bf" class="slogan-text-1" data-fill-palette-color="secondary" id="text-1"></path></svg></g></svg></g></svg></g></svg></g></svg></g></svg></g></svg></g><g><path d="M198.823 0c33.847 0 64.516 13.605 86.838 35.644l-6.415 0c-21.198-19.393-49.428-31.224-80.423-31.224-30.994 0-59.225 11.831-80.422 31.224l-6.415 0c22.321-22.039 52.991-35.644 86.837-35.644zM322.423 123.6c0 7.842-0.73 15.514-2.126 22.95l0-45.9c1.396 7.437 2.127 15.108 2.126 22.95zM198.823 247.2c-33.847 0-64.516-13.605-86.837-35.644h6.415c21.198 19.393 49.428 31.224 80.422 31.224 30.994 0 59.225-11.831 80.423-31.224h6.415c-22.321 22.039-52.991 35.644-86.838 35.644z" fill="#2257bf" stroke="transparent" data-fill-palette-color="tertiary"></path></g></svg></g><defs></defs></svg><rect width="395.52" height="247.2" fill="none" stroke="none" visibility="hidden"></rect></g></svg></g></svg>